<svg width="25" height="25" xmlns="http://www.w3.org/2000/svg">

 <g>
  <title>background</title>
  <rect fill="none" id="canvas_background" height="27" width="27" y="-1" x="-1"/>
 </g>
 <g>
  <title>Layer 1</title>
  <rect x="-0.098159" y="0" id="svg_1" width="32" height="32" fill="none"/>
  <path stroke="null" fill="#00007f" id="svg_2" d="m21.053859,13.449515l0,-9.14811c0.017768,-0.201497 -0.134907,-1.270468 -1.383288,-2.112014c-1.239826,-0.852658 -3.486517,-1.58827 -7.827224,-1.591233c-4.342681,0.002963 -6.589372,0.738575 -7.830514,1.591233c-1.247065,0.840805 -1.400398,1.909776 -1.38263,2.112014l0,16.845738c-0.023033,0.261502 0.200715,1.206019 1.431986,1.870514c1.228639,0.685979 3.44769,1.28158 7.779842,1.286025c1.301686,-0.001482 2.408579,-0.056301 3.358849,-0.151123c0.402746,0.097044 0.819312,0.151123 1.247065,0.151123c3.271324,-0.001482 5.922077,-2.985414 5.923394,-6.667919c-0.000658,-1.587529 -0.494877,-3.041715 -1.31748,-4.186247zm-9.211828,9.372572c-4.220936,0.005186 -6.278758,-0.608195 -7.188885,-1.128976c-0.456709,-0.259279 -0.649527,-0.480037 -0.707438,-0.577822c-0.011845,-0.020002 0.005923,-0.034817 0.001316,-0.045929l-0.001974,-14.705574c0.024349,0.017038 0.042775,0.034817 0.067782,0.051115c1.241142,0.851176 3.487833,1.586048 7.830514,1.591233c4.340707,-0.004445 6.587398,-0.740057 7.827882,-1.590493c0.024349,-0.017038 0.043433,-0.035558 0.067782,-0.051856l0,5.73007c-0.941715,-0.708943 -2.072957,-1.124531 -3.291067,-1.124531c-3.271982,0.001482 -5.921419,2.983192 -5.922736,6.666438c0.000658,2.090531 0.856164,3.954378 2.193386,5.176694c-0.282975,0.005926 -0.570557,0.010371 -0.876565,0.00963zm4.605914,-0.001482c-2.543486,-0.004445 -4.601307,-2.320919 -4.606572,-5.184843c0.005265,-2.863183 2.063086,-5.178916 4.606572,-5.185583c2.544144,0.006667 4.601965,2.322401 4.605914,5.185583c-0.003948,2.863924 -2.06177,5.180398 -4.605914,5.184843z"/>
  <polygon stroke="null" fill="#00007f" id="svg_4" points="19.78220796585083,16.73189878463745 17.33435583114624,16.73189878463745 17.33435583114624,14.223926067352295 16.108585834503174,14.223926067352295 16.108585834503174,16.73189878463745 13.659508228302002,16.73189878463745 13.659508228302002,17.985887050628662 16.108585834503174,17.985887050628662 16.108585834503174,20.493863582611084 17.33435583114624,20.493863582611084 17.33435583114624,17.985887050628662 19.78220796585083,17.985887050628662 "/>
 </g>
</svg>