<svg width="20" height="20" xmlns="http://www.w3.org/2000/svg">

 <g>
  <title>background</title>
  <rect fill="none" id="canvas_background" height="22" width="22" y="-1" x="-1"/>
 </g>
 <g>
  <title>Layer 1</title>
  <path stroke="null" fill="#ffffff" id="svg_2" d="m7.703782,10.522506c-0.365209,0.430871 -0.454778,0.73999 -0.932951,1.549529c0.308822,0.230976 0.903707,0.765167 1.315781,1.684894c0.823062,-0.505641 1.206792,-0.58282 1.642937,-0.976146c2.847029,-2.56828 9.82069,-11.774222 9.580553,-12.040535c-0.253671,-0.283098 -9.099456,6.837236 -11.606321,9.782257z"/>
  <path fill="#ffffff" stroke="null" id="svg_3" d="m5.178095,13.707782c-1.010786,-0.167194 -2.007819,0.430828 -2.673783,1.924996c-0.666914,1.494053 -1.856957,2.092247 -2.087645,2.055666c1.242209,0.420565 5.029793,1.496317 5.971321,-2.598932c-0.399346,-0.982179 -1.209893,-1.38173 -1.209893,-1.38173z"/>
 </g>
</svg>