<svg width="24.000000000000004" height="24.000000000000004" xmlns="http://www.w3.org/2000/svg">

 <g>
  <title>background</title>
  <rect fill="none" id="canvas_background" height="26" width="26" y="-1" x="-1"/>
 </g>
 <g>
  <title>Layer 1</title>
  <path stroke="null" fill="#00007f" id="svg_1" d="m19.117105,5.429111l-0.734573,0l0,-1.911874c0,-0.496177 -0.380453,-0.898134 -0.849328,-0.898134l-12.211364,0c-0.468911,0 -0.849508,0.401957 -0.849508,0.898134l0,1.911835l-1.403963,0c-0.423693,0 -0.770187,0.366872 -0.770187,0.814873l0,4.476551c0,0.448192 0.346494,0.814721 0.770187,0.814721l7.168817,0c0.423693,0 0.770331,0.367328 0.770331,0.815063l0,1.231709c-0.243251,0.301344 -0.464666,0.711368 -0.464666,0.711368s-0.269547,5.977183 0,6.262012c0.268936,0.284144 1.415798,0.346057 1.742615,0c0.328112,-0.346704 0,-6.262012 0,-6.262012s-0.205731,-0.380913 -0.43837,-0.6783l0,-2.153664c0,-0.448344 -0.346638,-0.814683 -0.769683,-0.814683l-7.169285,0c-0.423225,0 -0.769683,-0.366872 -0.769683,-0.814721l0,-2.699386c0,-0.448572 0.346494,-0.815254 0.769683,-0.815254l0.564204,0l0,1.912368c0,0.495644 0.380597,0.897601 0.849508,0.897601l12.211364,0c0.468875,0 0.849328,-0.401957 0.849328,-0.897601l0,-1.912368l0.734573,0c0.423081,0.000038 0.423081,-0.88824 0,-0.88824z"/>
 </g>
</svg>