<svg width="24" height="24" xmlns="http://www.w3.org/2000/svg">
 <title/>
 <desc/>

 <g>
  <title>background</title>
  <rect fill="none" id="canvas_background" height="26" width="26" y="-1" x="-1"/>
 </g>
 <g>
  <title>Layer 1</title>
  <path stroke="null" fill="#00007f" id="Shape" d="m10.668713,2.834356c-4.48773,0 -8.159509,3.630368 -8.159509,8.067484c0,4.437116 3.671779,8.067484 8.159509,8.067484c4.48773,0 8.159509,-3.630368 8.159509,-8.067484c0,-4.437116 -3.671779,-8.067484 -8.159509,-8.067484l0,0zm0,14.521472c-3.590184,0 -6.527607,-2.904294 -6.527607,-6.453987c0,-3.549693 2.937423,-6.453987 6.527607,-6.453987c3.590184,0 6.527607,2.904294 6.527607,6.453987c0,3.549693 -2.937423,6.453987 -6.527607,6.453987l0,0z"/>
 </g>
</svg>