<svg width="13" height="13" xmlns="http://www.w3.org/2000/svg">

 <g>
  <title>background</title>
  <rect fill="none" id="canvas_background" height="15" width="15" y="-1" x="-1"/>
 </g>
 <g>
  <title>Layer 1</title>
  <path fill="#ffffff" stroke="null" id="svg_1" d="m12.360136,10.808508l-4.216715,-4.308508l4.216715,-4.308508c0.45525,-0.465161 0.45525,-1.214036 0,-1.679196c-0.45525,-0.465161 -1.188171,-0.465161 -1.643421,0l-4.216715,4.308508l-4.216715,-4.308508c-0.45525,-0.465161 -1.188171,-0.465161 -1.643421,0c-0.45525,0.465161 -0.45525,1.214036 0,1.679196l4.216715,4.308508l-4.216715,4.308508c-0.45525,0.465161 -0.45525,1.214036 0,1.679196c0.45525,0.465161 1.188171,0.465161 1.643421,0l4.216715,-4.308508l4.216715,4.308508c0.45525,0.465161 1.188171,0.465161 1.643421,0c0.452022,-0.465161 0.452022,-1.217335 0,-1.679196z"/>
 </g>
</svg>