<svg width="25" height="25" xmlns="http://www.w3.org/2000/svg">

 <g>
  <title>background</title>
  <rect fill="none" id="canvas_background" height="27" width="27" y="-1" x="-1"/>
 </g>
 <g>
  <title>Layer 1</title>
  <path fill="#00007f" stroke="null" id="svg_1" d="m2.727349,10.671999c-1.046619,0 -1.891481,0.845905 -1.891481,1.893817s0.844861,1.893817 1.891481,1.893817s1.891481,-0.845905 1.891481,-1.893817s-0.844861,-1.893817 -1.891481,-1.893817zm0,-7.575268c-1.046619,0 -1.891481,0.845905 -1.891481,1.893817s0.844861,1.893817 1.891481,1.893817s1.891481,-0.845905 1.891481,-1.893817s-0.844861,-1.893817 -1.891481,-1.893817zm0,15.358855c-0.926826,0 -1.683418,0.751214 -1.683418,1.685497s0.756592,1.685497 1.683418,1.685497s1.683418,-0.751214 1.683418,-1.685497s-0.756592,-1.685497 -1.683418,-1.685497zm3.782962,2.948042l17.653821,0l0,-2.525089l-17.653821,0l0,2.525089zm0,-7.575268l17.653821,0l0,-2.525089l-17.653821,0l0,2.525089zm0,-10.100357l0,2.525089l17.653821,0l0,-2.525089l-17.653821,0z"/>
 </g>
</svg>