<svg width="20" height="20" xmlns="http://www.w3.org/2000/svg">

 <g>
  <title>background</title>
  <rect fill="none" id="canvas_background" height="22" width="22" y="-1" x="-1"/>
 </g>
 <g>
  <title>Layer 1</title>
  <path stroke="null" fill="#f3f3f3" id="svg_3" d="m15.431477,3.309927l-2.118462,0c-0.458326,0 -0.82955,0.313369 -0.82955,0.700266s0.371223,0.700266 0.82955,0.700266l2.118462,0c1.321576,0 2.396362,0.90772 2.396362,2.022893l0,9.169981c0,1.115611 -1.075304,2.022893 -2.396362,2.022893l-10.862953,0c-1.321576,0 -2.396362,-0.90772 -2.396362,-2.022893l0,-9.169981c0,-1.115611 1.075304,-2.022893 2.396362,-2.022893l2.118462,0c0.458326,0 0.82955,-0.313369 0.82955,-0.700266s-0.371223,-0.700266 -0.82955,-0.700266l-2.118462,0c-2.236155,0 -4.055461,1.535771 -4.055461,3.423425l0,9.169981c0,1.887654 1.819306,3.423425 4.055461,3.423425l10.862953,0c2.236155,0 4.055461,-1.535771 4.055461,-3.423425l0,-9.169981c0,-1.887654 -1.819306,-3.423425 -4.055461,-3.423425z" class="st0"/>
  <path stroke="null" fill="#f3f3f3" id="svg_5" d="m7.182905,9.156427c-0.263142,-0.226165 -0.689643,-0.226165 -0.952785,0c-0.263142,0.226165 -0.263142,0.592734 0,0.818899l3.293277,2.830504c0.015999,0.013751 0.032419,0.026416 0.049681,0.03872c0.007157,0.005066 0.014736,0.009408 0.021893,0.014113c0.010105,0.006514 0.020209,0.013389 0.031156,0.019541c0.009263,0.005428 0.018525,0.00977 0.027788,0.014475c0.009684,0.005066 0.018946,0.010132 0.02863,0.014475c0.009684,0.004342 0.019788,0.008323 0.029472,0.012303c0.010105,0.003981 0.019788,0.008323 0.030314,0.011942c0.009684,0.003619 0.019367,0.006152 0.029472,0.009408c0.010947,0.003257 0.021472,0.006875 0.03284,0.00977c0.010105,0.002533 0.019788,0.004342 0.029893,0.006514c0.011368,0.002533 0.022314,0.005066 0.034103,0.007237c0.011789,0.002171 0.023578,0.003257 0.034945,0.004704c0.010105,0.001086 0.019788,0.002895 0.029893,0.003619c0.021893,0.001809 0.044208,0.002895 0.066522,0.002895s0.044208,-0.001086 0.066522,-0.002895c0.010105,-0.000724 0.020209,-0.002533 0.029893,-0.003619c0.011789,-0.001447 0.023578,-0.002533 0.034945,-0.004704c0.011368,-0.001809 0.022735,-0.004704 0.033682,-0.007237c0.010105,-0.002171 0.020209,-0.003981 0.029893,-0.006514c0.010947,-0.002895 0.021893,-0.006514 0.03284,-0.00977c0.009684,-0.002895 0.019788,-0.00579 0.029472,-0.009408c0.010105,-0.003619 0.020209,-0.007961 0.030314,-0.011942c0.009684,-0.003981 0.019788,-0.007599 0.029472,-0.012303c0.009684,-0.004342 0.018946,-0.00977 0.02863,-0.014475c0.009263,-0.004704 0.018946,-0.009408 0.028209,-0.014475c0.010526,-0.006152 0.02063,-0.013027 0.031156,-0.019541c0.007157,-0.004704 0.014736,-0.009047 0.021893,-0.014113c0.017262,-0.012303 0.034103,-0.024969 0.049681,-0.03872l3.293277,-2.830504c0.263142,-0.226165 0.263142,-0.592734 0,-0.818899c-0.263142,-0.226165 -0.689643,-0.226165 -0.952785,0l-2.14303,1.842614l0,-9.962854c0,-0.319888 -0.301456,-0.578983 -0.673644,-0.578983s-0.673644,0.259095 -0.673644,0.578983l0,9.962854l-2.143872,-1.842614z" class="st0"/>
 </g>
</svg>