<svg width="20" height="18" xmlns="http://www.w3.org/2000/svg">
 <title/>

 <g>
  <title>background</title>
  <rect fill="none" id="canvas_background" height="20" width="22" y="-1" x="-1"/>
 </g>
 <g>
  <title>Layer 1</title>
  <path stroke="null" id="svg_1" fill="#ffffff" d="m18.628469,5.770833a1.078091,1.055511 0 0 1 -0.539046,0.918295l-7.546637,4.222046a1.078091,1.055511 0 0 1 -1.078091,0l-7.546637,-4.222046a1.078091,1.055511 0 0 1 0,-1.83659l7.546637,-4.222046a1.078091,1.055511 0 0 1 1.078091,0l7.546637,4.222046a1.078091,1.055511 0 0 1 0.539046,0.918295z"/>
  <path stroke="null" id="svg_2" fill="#ffffff" d="m17.971596,10.848635l-1.817524,-1.156135l-4.570382,2.844091a3.188638,3.468404 0 0 1 -1.58369,0.474015a3.188638,3.468404 0 0 1 -1.573062,-0.450893l-4.58101,-2.844091l-1.817524,1.156135a1.062879,1.156135 0 0 0 0,2.011674l7.440156,4.624539a1.062879,1.156135 0 0 0 1.062879,0l7.440156,-4.624539a1.062879,1.156135 0 0 0 0,-2.011674l0,-0.023123z"/>
 </g>
</svg>