<svg width="25" height="25" xmlns="http://www.w3.org/2000/svg">

 <g>
  <title>background</title>
  <rect fill="none" id="canvas_background" height="27" width="27" y="-1" x="-1"/>
 </g>
 <g>
  <title>Layer 1</title>
  <path fill="#00007f" stroke="null" id="svg_2" d="m22.883605,1.022696c-0.121377,-0.373485 -0.501574,-0.570293 -0.848749,-0.440272c-0.347398,0.130021 -0.530803,0.538084 -0.409872,0.91157c1.026129,3.161955 -1.010734,5.522231 -2.562534,6.786919l-0.628529,-0.964383c-0.210179,-0.322329 -0.682301,-0.590898 -1.048441,-0.596819l-3.520166,0.017052c-0.365917,-0.006158 -0.911446,0.174072 -1.211542,0.400011l-10.371514,7.801747c-0.502243,0.377985 -0.624513,1.12164 -0.272876,1.661619l4.713858,7.232401c0.35186,0.539979 0.917247,0.475323 1.41949,0.097575l10.371291,-7.80151c0.300097,-0.226175 0.643701,-0.715235 0.764409,-1.087063l1.102213,-3.725617c0.120039,-0.372064 0.046855,-0.93999 -0.163547,-1.262556l-0.383097,-0.587582c2.086396,-1.711591 4.251107,-4.739736 3.049605,-8.443091zm-4.825418,11.07904c-0.803902,0.604397 -1.911916,0.394327 -2.474625,-0.468929c-0.562932,-0.863966 -0.367702,-2.053814 0.436646,-2.658922c0.6379,-0.48006 1.466568,-0.445009 2.062968,0.020841c-0.30032,0.194203 -0.506259,0.305988 -0.545529,0.325882c-0.332449,0.168625 -0.474576,0.594924 -0.318169,0.952068c0.113791,0.259332 0.353422,0.411142 0.60354,0.411142c0.095049,0 0.19166,-0.022262 0.283586,-0.068682c0.213749,-0.108233 0.443786,-0.238964 0.68364,-0.391248c0.108213,0.702446 -0.152614,1.442075 -0.732057,1.877848z"/>
 </g>
</svg>