<svg width="17" height="17" xmlns="http://www.w3.org/2000/svg">

 <g>
  <title>background</title>
  <rect fill="none" id="canvas_background" height="19" width="19" y="-1" x="-1"/>
 </g>
 <g>
  <title>Layer 1</title>
  <path fill="#f3f3f3" stroke="null" id="svg_2" d="m6.52723,12.567899l-0.746194,0.696727c-0.646837,0.60279 -1.698845,0.60331 -2.345313,0c-0.310791,-0.289956 -0.481487,-0.675062 -0.481487,-1.084433s0.17088,-0.79465 0.481303,-1.084606l2.746614,-2.562118c0.569231,-0.530691 1.640042,-1.312169 2.420523,-0.584419c0.358166,0.334498 0.936614,0.332245 1.292199,-0.004333c0.355769,-0.336578 0.353557,-0.880614 -0.004608,-1.214766c-1.32667,-1.237817 -3.287457,-1.009041 -4.995151,0.584072l-2.746798,2.562291c-0.659003,0.615095 -1.021777,1.433143 -1.021777,2.303878s0.362774,1.688609 1.021962,2.303705c0.678174,0.6326 1.568704,0.948727 2.459602,0.948727c0.891083,0 1.781981,-0.316127 2.460524,-0.949074l0.746747,-0.6969c0.357982,-0.334152 0.360009,-0.878014 0.00424,-1.214766c-0.355216,-0.336405 -0.934217,-0.338311 -1.292383,-0.003986zm8.323899,-9.952968c-1.424921,-1.329327 -3.41723,-1.401426 -4.736342,-0.170889l-0.930162,0.868136c-0.358166,0.334325 -0.360378,0.878014 -0.004608,1.214766c0.355769,0.336751 0.934217,0.338658 1.292383,0.004333l0.929793,-0.867616c0.683335,-0.637973 1.578105,-0.373494 2.161714,0.170889c0.31116,0.289956 0.48204,0.675236 0.48204,1.084606c0,0.409544 -0.171064,0.794823 -0.481671,1.084779l-2.930398,2.73318c-1.339942,1.249949 -1.96853,0.663277 -2.236739,0.41301c-0.358166,-0.334325 -0.936429,-0.332245 -1.292199,0.004333c-0.355769,0.336578 -0.353557,0.880614 0.004608,1.214766c0.615131,0.57402 1.317269,0.858603 2.053324,0.858603c0.901221,0 1.853135,-0.426702 2.758227,-1.271613l2.930398,-2.73318c0.658819,-0.615095 1.021962,-1.433316 1.021962,-2.304051c0,-0.870389 -0.363143,-1.688609 -1.02233,-2.304051z"/>
 </g>
</svg>