<svg width="20" height="20" xmlns="http://www.w3.org/2000/svg">
 <title/>
 <desc/>

 <g>
  <title>background</title>
  <rect fill="none" id="canvas_background" height="22" width="22" y="-1" x="-1"/>
 </g>
 <g>
  <title>Layer 1</title>
  <path fill="#f3f3f3" stroke="null" id="clipboard-list" d="m8.304581,2.318008l0,-0.662941c0,-0.727482 0.663591,-1.321734 1.482165,-1.321734l0.732063,0c0.821324,0 1.482165,0.591764 1.482165,1.321734l0,0.662941l1.481825,0c0.40715,0 0.736011,0.295882 0.736011,0.66087l0,0.662934c0,0.368025 -0.329526,0.66087 -0.736011,0.66087l-6.660044,0c-0.40715,0 -0.736011,-0.295882 -0.736011,-0.66087l0,-0.662934c0,-0.368025 0.329526,-0.66087 0.736011,-0.66087l1.481825,0l0,0zm6.653501,0.661558l0.741193,0c0.818005,0 1.47665,0.593444 1.47665,1.325491l0,13.88797c0,0.736863 -0.661122,1.325491 -1.47665,1.325491l-11.092996,0c-0.818005,0 -1.47665,-0.593444 -1.47665,-1.325491l0,-13.88797c0,-0.736863 0.661122,-1.325491 1.47665,-1.325491l0.741193,0c-0.000007,0.001078 -0.000007,0.00215 -0.000007,0.003228l0,0.655101c0,0.732517 0.660575,1.326345 1.480598,1.326345l6.649428,0c0.817709,0 1.480598,-0.591367 1.480598,-1.326345l0,-0.655101c0,-0.001078 0,-0.00215 -0.000007,-0.003228l0,0l0,0zm-4.805304,-0.661558c0.204144,0 0.369639,-0.148096 0.369639,-0.330779c0,-0.182683 -0.165495,-0.330779 -0.369639,-0.330779c-0.204144,0 -0.369639,0.148096 -0.369639,0.330779c0,0.182683 0.165495,0.330779 0.369639,0.330779l0,0zm-1.108918,5.954023l0,0.661558l5.91423,0l0,-0.661558l-5.91423,0l0,0zm-3.696394,-0.661558l0,1.984674l2.217836,0l0,-1.984674l-2.217836,0l0,0zm0.739279,0.661558l0,0.661558l0.739279,0l0,-0.661558l-0.739279,0l0,0zm-0.739279,2.646232l0,1.984674l2.217836,0l0,-1.984674l-2.217836,0l0,0zm0.739279,0.661558l0,0.661558l0.739279,0l0,-0.661558l-0.739279,0l0,0zm2.957115,0l0,0.661558l5.91423,0l0,-0.661558l-5.91423,0l0,0zm-3.696394,2.646232l0,1.984674l2.217836,0l0,-1.984674l-2.217836,0l0,0zm0.739279,0.661558l0,0.661558l0.739279,0l0,-0.661558l-0.739279,0l0,0zm2.957115,0l0,0.661558l5.91423,0l0,-0.661558l-5.91423,0l0,0z"/>
 </g>
</svg>