<svg width="24" height="24" xmlns="http://www.w3.org/2000/svg">

 <g>
  <title>background</title>
  <rect fill="none" id="canvas_background" height="26" width="26" y="-1" x="-1"/>
 </g>
 <g>
  <title>Layer 1</title>
  <path stroke="null" fill="#00007f" id="svg_1" d="m20.826446,10.236317l-2.820985,-2.560952c-0.311603,-0.28286 -0.816911,-0.28286 -1.128514,0c-0.311603,0.28286 -0.311603,0.741557 0,1.024417l1.459069,1.32448l-6.053319,0l0,-5.494764l1.458869,1.324299c0.311603,0.28286 0.816911,0.28286 1.128514,0c0.311603,-0.28286 0.311603,-0.741557 0,-1.024417l-2.821185,-2.560952c-0.311603,-0.28286 -0.816911,-0.28286 -1.128514,0l-2.821185,2.561133c-0.311603,0.28286 -0.311603,0.741557 0,1.024417s0.816911,0.28286 1.128514,0l1.459069,-1.32448l0,5.494764l-6.053119,0l1.458869,-1.324299c0.311603,-0.28286 0.311603,-0.741557 0,-1.024417s-0.816911,-0.28286 -1.128514,0l-2.821185,2.560771c-0.311603,0.28286 -0.311603,0.741557 0,1.024417l2.821384,2.561133c0.311603,0.28286 0.816911,0.28286 1.128514,0c0.311603,-0.28286 0.311603,-0.741557 0,-1.024417l-1.459069,-1.32448l6.053119,0l0,5.494945l-1.458869,-1.32448c-0.311603,-0.28286 -0.816911,-0.28286 -1.128514,0c-0.311603,0.28286 -0.311603,0.741557 0,1.024417l2.821185,2.560952c0.311603,0.28286 0.816911,0.28286 1.128514,0l2.821384,-2.560952c0.311603,-0.28286 0.311603,-0.741557 0,-1.024417c-0.311603,-0.28286 -0.816911,-0.28286 -1.128514,0l-1.459268,1.324299l0,-5.494764l6.053119,0l-1.458869,1.324299c-0.311603,0.28286 -0.311603,0.741557 0,1.024417c0.311603,0.28286 0.816911,0.28286 1.128514,0l2.821185,-2.561133c0.311603,-0.282498 0.311603,-0.741376 -0.000199,-1.024236z"/>
 </g>
</svg>