<svg width="10" height="10" xmlns="http://www.w3.org/2000/svg">

 <g>
  <title>background</title>
  <rect fill="none" id="canvas_background" height="12" width="12" y="-1" x="-1"/>
 </g>
 <g>
  <title>Layer 1</title>
  <path fill="#00007f" stroke="null" id="svg_1" d="m9.114148,4.328328l-3.428457,0l0,-3.35836c0,-0.370763 -0.30719,-0.671672 -0.685691,-0.671672s-0.685691,0.300909 -0.685691,0.671672l0,3.35836l-3.428457,0c-0.378502,0 -0.685691,0.300909 -0.685691,0.671672s0.30719,0.671672 0.685691,0.671672l3.428457,0l0,3.35836c0,0.370763 0.30719,0.671672 0.685691,0.671672s0.685691,-0.300909 0.685691,-0.671672l0,-3.35836l3.428457,0c0.378502,0 0.685691,-0.300909 0.685691,-0.671672s-0.30719,-0.671672 -0.685691,-0.671672z"/>
 </g>
</svg>