<svg width="14" height="14" xmlns="http://www.w3.org/2000/svg">

 <g>
  <title>background</title>
  <rect fill="none" id="canvas_background" height="16" width="16" y="-1" x="-1"/>
 </g>
 <g>
  <title>Layer 1</title>
  <path stroke="null" id="svg_1" d="m12.657322,1.784665l-3.412765,0l0,-0.949545c0,-0.431192 -0.296423,-0.782148 -0.660614,-0.782148l-3.066613,0c-0.364191,0 -0.660614,0.350957 -0.660614,0.782148l0,0.949545l-3.412765,0c-0.13456,0 -0.243769,0.1293 -0.243769,0.288616s0.109208,0.288616 0.243769,0.288616l1.462614,0l0,10.403438c0,0.629182 0.432446,1.141186 0.963862,1.141186l6.360906,0c0.531416,0 0.963862,-0.512004 0.963862,-1.141186l0,-10.403438l1.462614,0c0.134073,0 0.243281,-0.1293 0.243281,-0.288616s-0.109208,-0.288616 -0.243769,-0.288616zm-7.313068,-0.949545c0,-0.11256 0.078006,-0.204917 0.173076,-0.204917l3.066126,0c0.095557,0 0.173563,0.092357 0.173563,0.204917l0,0.949545l-3.412765,0l0,-0.949545zm5.362916,11.930215c0,0.311128 -0.213542,0.563955 -0.476324,0.563955l-6.360419,0c-0.262783,0 -0.476324,-0.252827 -0.476324,-0.563955l0,-10.403438l7.313068,0l0,10.403438z"/>
  <path stroke="null" id="svg_2" d="m7,11.315716c0.189757,0 0.343763,-0.127786 0.343763,-0.285237l0,-6.845678c0,-0.157451 -0.154006,-0.285237 -0.343763,-0.285237s-0.343763,0.127786 -0.343763,0.285237l0,6.845678c0,0.157451 0.154006,0.285237 0.343763,0.285237z"/>
 </g>
</svg>