<svg width="24" height="24" xmlns="http://www.w3.org/2000/svg">

 <g>
  <title>background</title>
  <rect fill="none" id="canvas_background" height="26" width="26" y="-1" x="-1"/>
 </g>
 <g>
  <title>Layer 1</title>
  <path stroke="null" fill-rule="nonzero" fill="#00007f" id="svg_1" d="m8.302805,19.772479c0.436685,0.121408 0.885277,-0.148552 1.001939,-0.602964c0.1167,-0.454451 -0.142706,-0.921335 -0.579391,-1.042744c-1.793334,-0.500064 -3.222124,-1.70915 -4.082317,-3.259713c-0.859502,-1.549244 -1.150753,-3.441086 -0.670008,-5.308182c0.480514,-1.866297 1.642331,-3.353178 3.132236,-4.248408c1.488715,-0.894471 3.306557,-1.197572 5.100659,-0.697268c1.793372,0.500064 3.222124,1.70915 4.082317,3.259673c0.859502,1.549284 1.150753,3.441086 0.670047,5.308182c-0.116662,0.454451 0.142745,0.921295 0.579429,1.042744c0.436646,0.121408 0.885277,-0.148552 1.001939,-0.603003c0.597061,-2.318989 0.233669,-4.671678 -0.836531,-6.600738c-1.069509,-1.92778 -2.845557,-3.431012 -5.074653,-4.052564c-2.228328,-0.621353 -4.48904,-0.243176 -6.342683,0.870565c-1.852414,1.113022 -3.296877,2.961369 -3.89413,5.281118c-0.597061,2.318989 -0.233669,4.671678 0.836531,6.600738c1.069509,1.92782 2.845595,3.431012 5.074653,4.052564l-0.000038,0z" class="fil0"/>
  <path stroke="null" fill-rule="nonzero" fill="#00007f" id="svg_2" d="m21.68286,13.164761c0.396081,-0.285882 0.453088,-0.799443 0.127426,-1.147057c-0.325706,-0.347652 -0.910807,-0.397689 -1.306888,-0.111845l-2.926028,2.113405l-2.407414,-2.567918c-0.325706,-0.347614 -0.910807,-0.397689 -1.306888,-0.111807c-0.396081,0.285844 -0.453088,0.799443 -0.127426,1.147057l2.947084,3.143516c0.015027,0.019095 0.030972,0.037767 0.048052,0.056019c0.327017,0.348802 0.914346,0.398878 1.311737,0.111845l-0.002184,-0.002339l3.64253,-2.630876z" class="fil0"/>
 </g>
</svg>