<svg width="24" height="24" xmlns="http://www.w3.org/2000/svg">
 <title/>

 <g>
  <title>background</title>
  <rect fill="none" id="canvas_background" height="26" width="26" y="-1" x="-1"/>
 </g>
 <g>
  <title>Layer 1</title>
  <path stroke="null" fill="#00007f" id="svg_1" d="m19.581029,3.603527a0.51839,0.519736 0 0 0 -0.030857,-0.105185l-0.037028,-0.123747a0.789928,0.791979 0 0 0 -0.067884,-0.123747a0.339422,0.340303 0 0 0 -0.04937,-0.09281a1.110836,1.11372 0 0 0 -0.339422,-0.340303a0.339422,0.340303 0 0 0 -0.09257,-0.049499l-0.123426,-0.068061l-0.123426,-0.037124l-0.104912,0a1.061465,1.064221 0 0 0 -0.265366,-0.055686l-4.937047,0a1.234262,1.237467 0 0 0 0,2.474933l1.956305,0l-9.361875,9.386185l0,-1.961385a1.234262,1.237467 0 0 0 -2.468523,0l0,4.949867a1.061465,1.064221 0 0 0 0,0.241306a0.51839,0.519736 0 0 0 0,0.105185l0.037028,0.123747a0.789928,0.791979 0 0 0 0.067884,0.123747a0.339422,0.340303 0 0 0 0.04937,0.09281a1.110836,1.11372 0 0 0 0.339422,0.340303a0.339422,0.340303 0 0 0 0.09257,0.049499l0.123426,0.068061l0.123426,0.037124l0.104912,0.030937a1.061465,1.064221 0 0 0 0.296223,0.024749l4.937047,0a1.234262,1.237467 0 0 0 0,-2.474933l-1.956305,0l9.361875,-9.386185l0,1.961385a1.234262,1.237467 0 0 0 2.468523,0l0,-4.949867a1.061465,1.064221 0 0 0 0,-0.241306z"/>
 </g>
</svg>