<svg width="24" height="24" xmlns="http://www.w3.org/2000/svg">
 <title/>

 <g>
  <title>background</title>
  <rect fill="none" id="canvas_background" height="26" width="26" y="-1" x="-1"/>
 </g>
 <g>
  <title>Layer 1</title>
  <path stroke="null" transform="rotate(-135 10.984422683715819,11.547870635986326) " fill="#00007f" id="svg_1" d="m18.172168,5.294784a0.464439,0.461101 0 0 0 -0.027645,-0.093318l-0.033174,-0.109786a0.707717,0.70263 0 0 0 -0.060819,-0.109786a0.304097,0.301911 0 0 0 -0.044232,-0.082339a0.995226,0.988074 0 0 0 -0.304097,-0.301911a0.304097,0.301911 0 0 0 -0.082936,-0.043914l-0.110581,-0.060382l-0.110581,-0.032936l-0.093994,0a0.950994,0.944159 0 0 0 -0.237749,-0.049404l-4.423228,0a1.105807,1.09786 0 0 0 0,2.195719l1.752704,0l-8.387547,8.327266l0,-1.740108a1.105807,1.09786 0 0 0 -2.211614,0l0,4.391439a0.950994,0.944159 0 0 0 0,0.214083a0.464439,0.461101 0 0 0 0,0.093318l0.033174,0.109786a0.707717,0.70263 0 0 0 0.060819,0.109786a0.304097,0.301911 0 0 0 0.044232,0.082339a0.995226,0.988074 0 0 0 0.304097,0.301911a0.304097,0.301911 0 0 0 0.082936,0.043914l0.110581,0.060382l0.110581,0.032936l0.093994,0.027446a0.950994,0.944159 0 0 0 0.265394,0.021957l4.423228,0a1.105807,1.09786 0 0 0 0,-2.195719l-1.752704,0l8.387547,-8.327266l0,1.740108a1.105807,1.09786 0 0 0 2.211614,0l0,-4.391439a0.950994,0.944159 0 0 0 0,-0.214083z"/>
 </g>
</svg>