<svg width="25.000000000000004" height="25.000000000000004" xmlns="http://www.w3.org/2000/svg">
 <title/>
 <desc/>

 <g>
  <title>background</title>
  <rect fill="none" id="canvas_background" height="27" width="27" y="-1" x="-1"/>
 </g>
 <g>
  <title>Layer 1</title>
  <path fill="#00007f" stroke="null" id="one-finger-swipe-left" d="m8.599471,4.509688l-6.110342,0l2.816825,2.684492l-0.650036,0.619498l-3.900219,-3.716989l3.900219,-3.716989l0.650036,0.619498l-2.816825,2.684492l6.154484,0c0.202274,-0.946882 1.075758,-1.651995 2.122646,-1.651995c1.205029,0 2.166788,0.927637 2.166788,2.071941l0,4.121695c0.36214,-0.258587 0.812286,-0.411652 1.300073,-0.411652c0.938237,0 1.729002,0.559589 2.033158,1.344823c0.382022,-0.322246 0.883954,-0.518826 1.433703,-0.518826c1.205029,0 2.166788,0.923655 2.166788,2.063036l0,0.011118c0.36214,-0.258182 0.812286,-0.410438 1.300073,-0.410438c1.205029,0 2.166788,0.92458 2.166788,2.065101l0,4.944157c0,3.877579 -3.298354,7.020979 -7.36708,7.020979c-2.698015,0 -5.545409,-1.19977 -7.505043,-4.602277c-2.828517,-4.911134 -6.445735,-8.131954 -4.723347,-9.773426c1.232166,-1.174279 3.166743,-0.047726 4.86131,1.462709l0,0l0,-6.910948l0,0zm7.365988,18.997944c3.590654,0 6.501456,-2.961383 6.501456,-6.194982c0,0 0,1.910731 0,0l0,-3.098185l0,-1.856413c0,-0.685049 -0.577059,-1.240384 -1.300073,-1.240384c-0.718013,0 -1.300073,0.554401 -1.300073,1.240384l0,0.411611l-0.866715,0l0,-2.059674c0,-0.687213 -0.577059,-1.244316 -1.300073,-1.244316c-0.718013,0 -1.300073,0.55469 -1.300073,1.244316l0,1.233677l-0.866715,0l0,-2.059674c0,-0.687213 -0.577059,-1.244316 -1.300073,-1.244316c-0.718013,0 -1.300073,0.55469 -1.300073,1.244316l0,2.885672l-0.866715,0l0,-8.668646c0,-0.686668 -0.577059,-1.243325 -1.300073,-1.243325c-0.718013,0 -1.300073,0.551048 -1.300073,1.243325l0,9.329436c-1.784047,-1.817542 -4.132819,-3.816827 -5.095393,-2.894518c-0.942267,0.902848 1.485836,3.39072 4.876443,8.827741c1.52769,2.449744 3.460707,4.143575 6.718222,4.143955l0,0z"/>
  <path fill="#00007f" stroke="null" transform="rotate(-180 16.97231101989746,4.301021575927734) " id="svg_1" d="m21.105636,4.700718l-6.476213,0l2.985488,2.598023l-0.688959,0.599544l-4.133753,-3.597263l4.133753,-3.597263l0.688959,0.599544l-2.985488,2.598023l6.522998,0l-0.046785,0.799392l0,0z"/>
 </g>
</svg>