<svg width="13.999999999999998" height="13.999999999999998" xmlns="http://www.w3.org/2000/svg">

 <g>
  <title>background</title>
  <rect fill="none" id="canvas_background" height="16" width="16" y="-1" x="-1"/>
 </g>
 <g>
  <title>Layer 1</title>
  <path stroke="null" id="svg_1" fill-rule="evenodd" fill="#ffffff" d="m6.53948,8.903196c0.566576,1.177985 0.358679,2.631614 -0.62369,3.60732c-1.246073,1.237614 -3.266358,1.237614 -4.512431,0c-1.246073,-1.237614 -1.246073,-3.244185 0,-4.481799c0.981809,-0.975144 2.444261,-1.181951 3.629942,-0.620421l2.79314,-2.774184c-0.522415,-1.034347 -0.442136,-2.240981 0.208763,-3.137671c0.650899,-0.896686 1.766255,-1.337183 2.900318,-1.145447c0.195033,0.032637 0.360525,0.171096 0.427481,0.357657c0.066956,0.186556 0.023881,0.389194 -0.111267,0.523419l-0.927684,0.921387c-0.084929,0.08476 -0.13491,0.198513 -0.140918,0.320732l-0.042118,0.817182c-0.007731,0.152239 0.053409,0.303564 0.166827,0.412926c0.113423,0.109366 0.267368,0.165427 0.420078,0.152986l0.789273,-0.062345c0.11691,-0.009716 0.224885,-0.058991 0.306086,-0.139672l0.933391,-0.927059c0.135147,-0.13423 0.339165,-0.177008 0.527001,-0.110511c0.187831,0.066501 0.327241,0.230874 0.360096,0.424584c0.193812,1.126591 -0.249491,2.234924 -1.152556,2.88158c-0.90307,0.646661 -2.118424,0.726043 -3.159837,0.20639l-2.791895,2.772948zm-1.784027,0.277981l-1.541027,-0.41011l-1.128105,1.120448l0.412917,1.530562l1.541023,0.410114l1.128105,-1.120448l-0.412913,-1.530566z"/>
 </g>
</svg>