<svg width="14" height="14" xmlns="http://www.w3.org/2000/svg">

 <g>
  <title>background</title>
  <rect fill="#000000" id="canvas_background" height="16" width="16" y="-1" x="-1"/>
 </g>
 <g>
  <title>Layer 1</title>
  <polygon stroke="null" id="svg_3" fill="#ffffff" points="7.000000953674316,5.056260418146849 6.064813613891602,6.007318329066038 6.064813613891602,3.062867235392332 4.194438934326172,3.062867235392332 7.000000953674316,0.11841794475913048 9.805561065673828,3.062867235392332 7.935188293457031,3.062867235392332 7.935188293457031,6.007318329066038 "/>
  <polygon stroke="null" id="svg_8" fill="#ffffff" points="20.344962120056152,5.426392495632172 19.409774780273438,6.377450406551361 19.409774780273438,3.4329997897148132 17.539400577545166,3.4329997897148132 20.344962120056152,0.48855043947696686 23.15052318572998,3.4329997897148132 21.280149459838867,3.4329997897148132 21.280149459838867,6.377450406551361 "/>
  <polygon transform="rotate(-90 2.975291252136231,7) " stroke="null" id="svg_9" fill="#ffffff" points="2.975292205810547,8.99339246749878 2.040104627609253,9.94444990158081 2.040104627609253,7 0.16973043978214264,7 2.975292205810547,4.0555500984191895 5.780852317810059,7 3.9104795455932617,7 3.9104795455932617,9.94444990158081 "/>
  <polygon transform="rotate(90 11.00000858306885,7.000000000000001) " stroke="null" id="svg_10" fill="#ffffff" points="11.000008583068848,8.993391990661621 10.06482219696045,9.944449424743652 10.06482219696045,7 8.19444751739502,7 11.000008583068848,4.055550575256348 13.805569648742676,7 11.935195922851562,7 11.935195922851562,9.944449424743652 "/>
  <polygon transform="rotate(180 7,10.974166870117188) " stroke="null" id="svg_11" fill="#ffffff" points="7.000000953674316,12.967558216303587 6.064813613891602,13.918616604059935 6.064813613891602,10.974166225641966 4.194438934326172,10.974166225641966 7.000000953674316,8.029716800898314 9.805561065673828,10.974166225641966 7.935188293457031,10.974166225641966 7.935188293457031,13.918616604059935 "/>
 </g>
</svg>