<svg width="13.999999999999998" height="13.999999999999998" xmlns="http://www.w3.org/2000/svg">
 <title/>

 <g>
  <title>background</title>
  <rect fill="none" id="canvas_background" height="16" width="16" y="-1" x="-1"/>
 </g>
 <g>
  <title>Layer 1</title>
  <path stroke="null" id="Oval 283 copy" d="m4.75459,8.717804c2.134612,0 3.86506,-1.755167 3.86506,-3.920272c0,-2.165105 -1.730447,-3.920272 -3.86506,-3.920272c-2.134612,0 -3.86506,1.755167 -3.86506,3.920272c0,2.165105 1.730447,3.920272 3.86506,3.920272zm-0.429451,-6.0982l0.858902,0l0,1.742343l1.717804,0l0,0.871171l-1.717804,0l0,1.742343l-0.858902,0l0,-1.742343l-1.717804,0l0,-0.871171l1.717804,0l0,-1.742343zm0.429451,6.969372c-2.608975,0 -4.723962,-2.145199 -4.723962,-4.791443c0,-2.646244 2.114986,-4.791443 4.723962,-4.791443c2.608975,0 4.723962,2.145199 4.723962,4.791443c0,1.062228 -0.340787,2.043716 -0.917522,2.838146l0.095476,0.218612l5.116557,5.219371l-0.858902,0.871171l-5.153413,-5.227029l-0.13514,-0.11496c-0.795721,0.618549 -1.791051,0.986131 -2.871018,0.986131zm0,0"/>
 </g>
</svg>